<svg width="357" height="326" viewBox="0 0 357 326" fill="none" xmlns="http://www.w3.org/2000/svg">
<path d="M16.75 251V73.5H57.5V150.25L126.5 73.5H175.5L94.75 162.25C98.5833 164.25 102 166.833 105 170C108.167 173.167 111 176.667 113.5 180.5L128.75 205.25C131.583 209.75 134.583 213 137.75 215C141.083 216.833 145.083 217.75 149.75 217.75C152.917 217.75 155.917 217.417 158.75 216.75C161.583 215.917 164.417 214.583 167.25 212.75L176.5 244.25C173 247.083 168.333 249.333 162.5 251C156.833 252.667 150.917 253.5 144.75 253.5C122.917 253.5 106.667 244.833 96 227.5L74.75 193.5C72.25 189.5 69.75 186.5 67.25 184.5C64.75 182.333 61.5 180.917 57.5 180.25V251H16.75Z" fill="#5B7E8E"/>
<path d="M291.75 278.75L301.25 310.25C297.583 313.083 292.833 315.333 287 317C281.333 318.667 275.5 319.5 269.5 319.5C258.667 319.5 249.167 317.333 241 313C232.833 308.5 226.083 302 220.75 293.5L199.5 259.5C197 255.5 194.5 252.75 192 251.25C189.667 249.583 186.917 248.667 183.75 248.5V317H143.75V139.5H202C226.5 139.5 244.833 144.417 257 154.25C269.333 164.083 275.5 177.667 275.5 195C275.5 208.667 271.25 219.833 262.75 228.5C254.417 237.167 243.667 242.833 230.5 245.5C236 248.167 240.833 252.583 245 258.75L253.5 271.75C258.833 279.75 265.833 283.75 274.5 283.75C277.667 283.75 280.667 283.417 283.5 282.75C286.333 281.917 289.083 280.583 291.75 278.75ZM199.75 172.75H183.75V216.75H199.5C212 216.75 221 215 226.5 211.5C232 207.833 234.75 202.167 234.75 194.5C234.75 186.833 231.667 181.333 225.5 178C219.333 174.5 210.75 172.75 199.75 172.75Z" fill="#5B7E8E"/>
</svg>
