<svg width="1749" height="595" viewBox="0 0 1749 595" fill="none" xmlns="http://www.w3.org/2000/svg">
<path d="M16.75 251V73.5H57.5V150.25L126.5 73.5H175.5L94.75 162.25C98.5833 164.25 102 166.833 105 170C108.167 173.167 111 176.667 113.5 180.5L128.75 205.25C131.583 209.75 134.583 213 137.75 215C141.083 216.833 145.083 217.75 149.75 217.75C152.917 217.75 155.917 217.417 158.75 216.75C161.583 215.917 164.417 214.583 167.25 212.75L176.5 244.25C173 247.083 168.333 249.333 162.5 251C156.833 252.667 150.917 253.5 144.75 253.5C122.917 253.5 106.667 244.833 96 227.5L74.75 193.5C72.25 189.5 69.75 186.5 67.25 184.5C64.75 182.333 61.5 180.917 57.5 180.25V251H16.75Z" fill="#5B7E8E"/>
<path d="M406.75 447.75L416.25 479.25C412.583 482.083 407.833 484.333 402 486C396.333 487.667 390.5 488.5 384.5 488.5C373.667 488.5 364.167 486.333 356 482C347.833 477.5 341.083 471 335.75 462.5L314.5 428.5C312 424.5 309.5 421.75 307 420.25C304.667 418.583 301.917 417.667 298.75 417.5V486H258.75V308.5H317C341.5 308.5 359.833 313.417 372 323.25C384.333 333.083 390.5 346.667 390.5 364C390.5 377.667 386.25 388.833 377.75 397.5C369.417 406.167 358.667 411.833 345.5 414.5C351 417.167 355.833 421.583 360 427.75L368.5 440.75C373.833 448.75 380.833 452.75 389.5 452.75C392.667 452.75 395.667 452.417 398.5 451.75C401.333 450.917 404.083 449.583 406.75 447.75ZM314.75 341.75H298.75V385.75H314.5C327 385.75 336 384 341.5 380.5C347 376.833 349.75 371.167 349.75 363.5C349.75 355.833 346.667 350.333 340.5 347C334.333 343.5 325.75 341.75 314.75 341.75Z" fill="#5B7E8E"/>
<path d="M198.4 251L244.6 144.5H265.15L309.55 251H284.65L276.1 229.25H232.15L223.3 251H198.4ZM240.55 208.85H268L254.5 174.5L240.55 208.85ZM387.411 144.5L384.261 165.95H352.011V251H327.411V165.95H293.661V144.5H387.411ZM394.13 251V144.5H418.58V186.65H463.13V144.5H487.73V251H463.13V208.1H418.58V251H394.13ZM507.802 251V144.5H532.252V251H507.802ZM621.333 144.5H644.883V251H623.133L575.883 184.85V251H552.333V144.5H574.083L621.333 210.65V144.5ZM664.98 251V144.5H689.43V190.55L730.83 144.5H760.23L711.78 197.75C714.08 198.95 716.13 200.5 717.93 202.4C719.83 204.3 721.53 206.4 723.03 208.7L732.18 223.55C733.88 226.25 735.68 228.2 737.58 229.4C739.58 230.5 741.98 231.05 744.78 231.05C746.68 231.05 748.48 230.85 750.18 230.45C751.88 229.95 753.58 229.15 755.28 228.05L760.83 246.95C758.73 248.65 755.93 250 752.43 251C749.03 252 745.48 252.5 741.78 252.5C728.68 252.5 718.93 247.3 712.53 236.9L699.78 216.5C698.28 214.1 696.78 212.3 695.28 211.1C693.78 209.8 691.83 208.95 689.43 208.55V251H664.98ZM760.314 251L806.514 144.5H827.064L871.464 251H846.564L838.014 229.25H794.064L785.214 251H760.314ZM802.464 208.85H829.914L816.414 174.5L802.464 208.85Z" fill="#5B7E8E"/>
<path d="M491.1 487.5C479.9 487.6 470.3 485.55 462.3 481.35C454.3 477.15 448.15 471.1 443.85 463.2C439.55 455.3 437.4 445.8 437.4 434.7C437.4 423.6 439.65 413.8 444.15 405.3C448.75 396.7 455.2 390 463.5 385.2C471.8 380.4 481.65 378 493.05 378C503.15 378 512 380.2 519.6 384.6C527.2 389 533.1 395.15 537.3 403.05C541.6 410.85 543.75 420.05 543.75 430.65C543.75 442.05 541.5 452 537 460.5C532.5 469 526.25 475.6 518.25 480.3C510.35 485 501.3 487.4 491.1 487.5ZM490.2 465.75C498.7 465.75 505.6 462.7 510.9 456.6C516.2 450.4 518.85 441.85 518.85 430.95C518.85 421.45 516.45 413.9 511.65 408.3C506.85 402.6 500.4 399.75 492.3 399.75C486.4 399.75 481.2 401.2 476.7 404.1C472.2 407 468.65 411.05 466.05 416.25C463.55 421.35 462.3 427.35 462.3 434.25C462.3 444.25 464.75 452 469.65 457.5C474.65 463 481.5 465.75 490.2 465.75ZM459.45 494.85L444.3 484.95L521.85 370.65L537 380.55L459.45 494.85ZM628.238 379.5H651.788V486H630.038L582.788 419.85V486H559.238V379.5H580.988L628.238 445.65V379.5ZM740.884 379.5H764.434V486H742.684L695.434 419.85V486H671.884V379.5H693.634L740.884 445.65V379.5ZM857.43 400.65H808.53V421.8H854.28V442.95H808.53V464.85H858.93L857.43 486H784.53V379.5H857.43V400.65Z" fill="#5B7E8E"/>
</svg>
